<svg width="28" height="28" viewBox="0 0 28 28" fill="none" xmlns="http://www.w3.org/2000/svg">
<g id="file_present">
<path id="Vector" d="M15.6304 2.70654H7.48269C6.23269 2.70654 5.20996 3.72927 5.20996 4.97927V23.1611C5.20996 24.4111 6.23269 25.4338 7.48269 25.4338H21.1191C22.3691 25.4338 23.3918 24.4111 23.3918 23.1611V10.4679C23.3918 9.86563 23.1531 9.28609 22.7213 8.86563L17.2327 3.377C16.8122 2.94518 16.2327 2.70654 15.6304 2.70654ZM18.8463 17.4793C18.8463 20.1384 16.5622 22.2634 13.8577 22.002C11.4941 21.7747 9.75542 19.6611 9.75542 17.2861V11.3884C9.75542 9.89973 10.8236 8.54745 12.3009 8.39973C14.0054 8.22927 15.4372 9.55882 15.4372 11.2293V16.3429C15.4372 16.9679 14.9259 17.4793 14.3009 17.4793C13.6759 17.4793 13.1645 16.9679 13.1645 16.3429V11.2293C13.1645 10.9111 12.9145 10.6611 12.5963 10.6611C12.2781 10.6611 12.0281 10.9111 12.0281 11.2293V17.3543C12.0281 18.4906 12.8009 19.5361 13.9145 19.7179C15.3463 19.9565 16.5736 18.8543 16.5736 17.4793V14.0702C16.5736 13.4452 17.085 12.9338 17.71 12.9338C18.335 12.9338 18.8463 13.4452 18.8463 14.0702V17.4793ZM16.5736 8.38836V4.97927L21.1191 9.52473H17.71C17.085 9.52473 16.5736 9.01336 16.5736 8.38836Z" fill="#BDBDBD"/>
</g>
</svg>
