<svg width="25" height="25" viewBox="0 0 25 25" fill="none" xmlns="http://www.w3.org/2000/svg">
<path d="M12.5703 2.06982C18.0933 2.06982 22.5703 6.54682 22.5703 12.0698C22.5703 17.5928 18.0933 22.0698 12.5703 22.0698C10.9525 22.072 9.3586 21.68 7.92632 20.9278L3.63632 22.0448C3.49298 22.0822 3.34237 22.0814 3.19941 22.0426C3.05646 22.0038 2.92613 21.9283 2.82134 21.8236C2.71654 21.7189 2.64093 21.5886 2.60199 21.4457C2.56305 21.3028 2.56213 21.1522 2.59932 21.0088L3.71532 16.7198C2.96112 15.286 2.56809 13.6899 2.57032 12.0698C2.57032 6.54682 7.04732 2.06982 12.5703 2.06982ZM13.8223 13.0698H9.32032L9.21832 13.0768C9.03881 13.1015 8.87431 13.1904 8.75523 13.327C8.63616 13.4635 8.57055 13.6386 8.57055 13.8198C8.57055 14.001 8.63616 14.1761 8.75523 14.3127C8.87431 14.4493 9.03881 14.5381 9.21832 14.5628L9.32032 14.5698H13.8223L13.9233 14.5628C14.1028 14.5381 14.2673 14.4493 14.3864 14.3127C14.5055 14.1761 14.5711 14.001 14.5711 13.8198C14.5711 13.6386 14.5055 13.4635 14.3864 13.327C14.2673 13.1904 14.1028 13.1015 13.9233 13.0768L13.8223 13.0698ZM15.8203 9.56982H9.32032L9.21832 9.57682C9.03881 9.60152 8.87431 9.69038 8.75523 9.82696C8.63616 9.96354 8.57055 10.1386 8.57055 10.3198C8.57055 10.501 8.63616 10.6761 8.75523 10.8127C8.87431 10.9493 9.03881 11.0381 9.21832 11.0628L9.32032 11.0698H15.8203L15.9223 11.0628C16.1018 11.0381 16.2663 10.9493 16.3854 10.8127C16.5045 10.6761 16.5701 10.501 16.5701 10.3198C16.5701 10.1386 16.5045 9.96354 16.3854 9.82696C16.2663 9.69038 16.1018 9.60152 15.9223 9.57682L15.8203 9.56982Z" fill="#BDBDBD"/>
</svg>
