<svg width="95" height="39" viewBox="0 0 95 39" fill="none" xmlns="http://www.w3.org/2000/svg">
<path d="M11.627 12.7812V27H8.70703V12.7812H11.627ZM16.002 12.7812V15.0762H4.40039V12.7812H16.002ZM21.7148 24.6172V19.9102C21.7148 19.5716 21.6595 19.2819 21.5488 19.041C21.4382 18.7936 21.2656 18.6016 21.0312 18.4648C20.8034 18.3281 20.5072 18.2598 20.1426 18.2598C19.8301 18.2598 19.5599 18.3151 19.332 18.4258C19.1042 18.5299 18.9284 18.6829 18.8047 18.8848C18.681 19.0801 18.6191 19.3112 18.6191 19.5781H15.8066C15.8066 19.1289 15.9108 18.7025 16.1191 18.2988C16.3275 17.8952 16.6302 17.5404 17.0273 17.2344C17.4245 16.9219 17.8965 16.6777 18.4434 16.502C18.9967 16.3262 19.6152 16.2383 20.2988 16.2383C21.1191 16.2383 21.8483 16.375 22.4863 16.6484C23.1243 16.9219 23.6257 17.332 23.9902 17.8789C24.3613 18.4258 24.5469 19.1094 24.5469 19.9297V24.4512C24.5469 25.0306 24.5827 25.5059 24.6543 25.877C24.7259 26.2415 24.8301 26.5605 24.9668 26.834V27H22.125C21.9883 26.7135 21.8841 26.3555 21.8125 25.9258C21.7474 25.4896 21.7148 25.0534 21.7148 24.6172ZM22.0859 20.5645L22.1055 22.1562H20.5332C20.1621 22.1562 19.8398 22.1986 19.5664 22.2832C19.293 22.3678 19.0684 22.4883 18.8926 22.6445C18.7168 22.7943 18.5866 22.9701 18.502 23.1719C18.4238 23.3737 18.3848 23.5951 18.3848 23.8359C18.3848 24.0768 18.4401 24.2949 18.5508 24.4902C18.6615 24.679 18.821 24.8288 19.0293 24.9395C19.2376 25.0436 19.4818 25.0957 19.7617 25.0957C20.1849 25.0957 20.5527 25.0111 20.8652 24.8418C21.1777 24.6725 21.4186 24.4642 21.5879 24.2168C21.7637 23.9694 21.8548 23.735 21.8613 23.5137L22.6035 24.7051C22.4993 24.972 22.3561 25.2487 22.1738 25.5352C21.998 25.8216 21.7734 26.0918 21.5 26.3457C21.2266 26.5931 20.8978 26.7982 20.5137 26.9609C20.1296 27.1172 19.6738 27.1953 19.1465 27.1953C18.4759 27.1953 17.8672 27.0618 17.3203 26.7949C16.7799 26.5215 16.3503 26.1471 16.0312 25.6719C15.7188 25.1901 15.5625 24.6432 15.5625 24.0312C15.5625 23.4779 15.6667 22.9863 15.875 22.5566C16.0833 22.127 16.3893 21.7656 16.793 21.4727C17.2031 21.1732 17.7142 20.9486 18.3262 20.7988C18.9382 20.6426 19.6478 20.5645 20.4551 20.5645H22.0859ZM32.4277 24.0801C32.4277 23.8783 32.3691 23.696 32.252 23.5332C32.1348 23.3704 31.9167 23.2207 31.5977 23.084C31.2852 22.9408 30.8327 22.8105 30.2402 22.6934C29.7064 22.5762 29.2083 22.4297 28.7461 22.2539C28.2904 22.0716 27.8932 21.8535 27.5547 21.5996C27.2227 21.3457 26.9622 21.0462 26.7734 20.7012C26.5846 20.3496 26.4902 19.9492 26.4902 19.5C26.4902 19.0573 26.5846 18.6406 26.7734 18.25C26.9688 17.8594 27.2454 17.5143 27.6035 17.2148C27.9681 16.9089 28.4108 16.6712 28.9316 16.502C29.459 16.3262 30.0514 16.2383 30.709 16.2383C31.627 16.2383 32.4147 16.3848 33.0723 16.6777C33.7363 16.9707 34.2441 17.3743 34.5957 17.8887C34.9538 18.3965 35.1328 18.9759 35.1328 19.627H32.3203C32.3203 19.3535 32.2617 19.1094 32.1445 18.8945C32.0339 18.6732 31.8581 18.5007 31.6172 18.377C31.3828 18.2467 31.0768 18.1816 30.6992 18.1816C30.3867 18.1816 30.1165 18.237 29.8887 18.3477C29.6608 18.4518 29.485 18.5951 29.3613 18.7773C29.2441 18.9531 29.1855 19.1484 29.1855 19.3633C29.1855 19.526 29.2181 19.6725 29.2832 19.8027C29.3548 19.9264 29.4688 20.0404 29.625 20.1445C29.7812 20.2487 29.9831 20.3464 30.2305 20.4375C30.4844 20.5221 30.7969 20.6003 31.168 20.6719C31.9297 20.8281 32.61 21.0332 33.209 21.2871C33.8079 21.5345 34.2832 21.873 34.6348 22.3027C34.9863 22.7259 35.1621 23.2826 35.1621 23.9727C35.1621 24.4414 35.0579 24.8711 34.8496 25.2617C34.6413 25.6523 34.3418 25.9941 33.9512 26.2871C33.5605 26.5736 33.0918 26.7982 32.5449 26.9609C32.0046 27.1172 31.3958 27.1953 30.7188 27.1953C29.7357 27.1953 28.9023 27.0195 28.2188 26.668C27.5417 26.3164 27.0273 25.8704 26.6758 25.3301C26.3307 24.7832 26.1582 24.2233 26.1582 23.6504H28.8242C28.8372 24.0345 28.9349 24.3438 29.1172 24.5781C29.306 24.8125 29.5436 24.9818 29.8301 25.0859C30.123 25.1901 30.4388 25.2422 30.7773 25.2422C31.1419 25.2422 31.4447 25.1934 31.6855 25.0957C31.9264 24.9915 32.1087 24.8548 32.2324 24.6855C32.3626 24.5098 32.4277 24.3079 32.4277 24.0801ZM39.8008 11.9902V27H36.9883V11.9902H39.8008ZM46.4609 16.4336L41.8711 21.668L39.4102 24.1582L38.3848 22.127L40.3379 19.6465L43.082 16.4336H46.4609ZM43.541 27L40.416 22.1172L42.3594 20.418L46.7832 27H43.541Z" fill="#0066CC"/>
<path d="M50.7773 12.7812V27H47.8477V12.7812H50.7773ZM56.4414 18.8555V21.1406H49.9766V18.8555H56.4414ZM57.125 12.7812V15.0762H49.9766V12.7812H57.125ZM61.6172 12V27H58.7949V12H61.6172ZM63.4922 21.8242V21.6191C63.4922 20.8444 63.6029 20.1315 63.8242 19.4805C64.0456 18.8229 64.3678 18.2533 64.791 17.7715C65.2142 17.2897 65.735 16.9154 66.3535 16.6484C66.972 16.375 67.6816 16.2383 68.4824 16.2383C69.2832 16.2383 69.9961 16.375 70.6211 16.6484C71.2461 16.9154 71.7702 17.2897 72.1934 17.7715C72.623 18.2533 72.9486 18.8229 73.1699 19.4805C73.3913 20.1315 73.502 20.8444 73.502 21.6191V21.8242C73.502 22.5924 73.3913 23.3053 73.1699 23.9629C72.9486 24.6139 72.623 25.1836 72.1934 25.6719C71.7702 26.1536 71.2493 26.528 70.6309 26.7949C70.0124 27.0618 69.3027 27.1953 68.502 27.1953C67.7012 27.1953 66.9883 27.0618 66.3633 26.7949C65.7448 26.528 65.2207 26.1536 64.791 25.6719C64.3678 25.1836 64.0456 24.6139 63.8242 23.9629C63.6029 23.3053 63.4922 22.5924 63.4922 21.8242ZM66.3047 21.6191V21.8242C66.3047 22.2669 66.3438 22.6803 66.4219 23.0645C66.5 23.4486 66.6237 23.7871 66.793 24.0801C66.9688 24.3665 67.1966 24.5911 67.4766 24.7539C67.7565 24.9167 68.0983 24.998 68.502 24.998C68.8926 24.998 69.2279 24.9167 69.5078 24.7539C69.7878 24.5911 70.0124 24.3665 70.1816 24.0801C70.3509 23.7871 70.4746 23.4486 70.5527 23.0645C70.6374 22.6803 70.6797 22.2669 70.6797 21.8242V21.6191C70.6797 21.1895 70.6374 20.7858 70.5527 20.4082C70.4746 20.0241 70.3477 19.6855 70.1719 19.3926C70.0026 19.0931 69.778 18.8587 69.498 18.6895C69.2181 18.5202 68.8796 18.4355 68.4824 18.4355C68.0853 18.4355 67.7467 18.5202 67.4668 18.6895C67.1934 18.8587 66.9688 19.0931 66.793 19.3926C66.6237 19.6855 66.5 20.0241 66.4219 20.4082C66.3438 20.7858 66.3047 21.1895 66.3047 21.6191ZM78.248 24.2656L80.4453 16.4336H82.2324L81.6562 19.5098L79.459 27H77.9648L78.248 24.2656ZM77.1348 16.4336L78.707 24.2559L78.8535 27H77.0957L74.4199 16.4336H77.1348ZM84.2441 24.1289L85.7773 16.4336H88.502L85.8262 27H84.0781L84.2441 24.1289ZM82.4766 16.4336L84.6641 24.207L84.9668 27H83.4629L81.2656 19.5195L80.709 16.4336H82.4766Z" fill="#00B894"/>
<path d="M1 30.5C0.723858 30.5 0.5 30.7239 0.5 31C0.5 31.2761 0.723858 31.5 1 31.5V30.5ZM94.321 31.3536C94.5163 31.1583 94.5163 30.8417 94.321 30.6464L91.1391 27.4645C90.9438 27.2692 90.6272 27.2692 90.432 27.4645C90.2367 27.6597 90.2367 27.9763 90.432 28.1716L93.2604 31L90.432 33.8284C90.2367 34.0237 90.2367 34.3403 90.432 34.5355C90.6272 34.7308 90.9438 34.7308 91.1391 34.5355L94.321 31.3536ZM1 31.5H93.9675V30.5H1V31.5Z" fill="#FFA726"/>
</svg>
