<svg width="36" height="38" viewBox="0 0 36 38" fill="none" xmlns="http://www.w3.org/2000/svg">
<path fill-rule="evenodd" clip-rule="evenodd" d="M27.2901 22.0467C23.6774 22.0467 20.7488 24.9754 20.7488 28.5881V37.3617C20.7488 37.4381 20.6869 37.5 20.6105 37.5H13.9819C13.1749 37.5 12.5207 36.8458 12.5207 36.0388V12.0185C12.5207 8.72357 9.84966 6.05254 6.55478 6.05254H3.61514C1.94377 6.05254 0.588867 4.69763 0.588867 3.02627C0.588867 1.35491 1.94377 0 3.61514 0H12.5207H13.9819H18.8992H20.6105H20.7488H32.7317C34.2111 0 35.4104 1.1993 35.4104 2.67871V3.37383C35.4104 4.85324 34.2111 6.05254 32.7317 6.05254H25.7325C22.9801 6.05254 20.7488 8.28381 20.7488 11.0362C20.7488 13.7886 22.9801 16.0199 25.7325 16.0199H30.8181C32.4823 16.0199 33.8315 17.3691 33.8315 19.0333C33.8315 20.6976 32.4823 22.0467 30.8181 22.0467H27.2901Z" fill="url(#paint0_linear_340_2665)"/>
<defs>
<linearGradient id="paint0_linear_340_2665" x1="35.4103" y1="18.75" x2="0.588867" y2="18.75" gradientUnits="userSpaceOnUse">
<stop offset="0.518543" stop-color="#00B894"/>
<stop offset="0.522157" stop-color="#0066CC"/>
</linearGradient>
</defs>
</svg>
