<svg width="25" height="25" viewBox="0 0 25 25" fill="none" xmlns="http://www.w3.org/2000/svg">
<g id="mdi:timer">
<path id="Vector" d="M19.53 7.52965L20.95 6.10965C20.5 5.59965 20.05 5.13965 19.54 4.69965L18.12 6.13965C16.57 4.87965 14.62 4.13965 12.5 4.13965C10.1131 4.13965 7.82387 5.08786 6.13604 6.77569C4.44821 8.46351 3.5 10.7527 3.5 13.1396C3.5 15.5266 4.44821 17.8158 6.13604 19.5036C7.82387 21.1914 10.1131 22.1396 12.5 22.1396C17.5 22.1396 21.5 18.1096 21.5 13.1396C21.5 11.0196 20.76 9.06965 19.53 7.52965ZM13.5 14.1396H11.5V7.13965H13.5V14.1396ZM15.5 1.13965H9.5V3.13965H15.5V1.13965Z" fill="#FFA726"/>
</g>
</svg>
