<svg width="30" height="30" viewBox="0 0 30 30" fill="none" xmlns="http://www.w3.org/2000/svg">
<rect x="1.16602" y="0.833008" width="28.3333" height="28.3333" rx="14.1667" stroke="#BDBDBD"/>
<path d="M21.166 14.1663H16.166V9.16634C16.166 8.94533 16.0782 8.73337 15.9219 8.57709C15.7657 8.42081 15.5537 8.33301 15.3327 8.33301C15.1117 8.33301 14.8997 8.42081 14.7434 8.57709C14.5871 8.73337 14.4993 8.94533 14.4993 9.16634V14.1663H9.49935C9.27834 14.1663 9.06637 14.2541 8.91009 14.4104C8.75381 14.5667 8.66602 14.7787 8.66602 14.9997C8.66602 15.2207 8.75381 15.4326 8.91009 15.5889C9.06637 15.7452 9.27834 15.833 9.49935 15.833H14.4993V20.833C14.4993 21.054 14.5871 21.266 14.7434 21.4223C14.8997 21.5785 15.1117 21.6663 15.3327 21.6663C15.5537 21.6663 15.7657 21.5785 15.9219 21.4223C16.0782 21.266 16.166 21.054 16.166 20.833V15.833H21.166C21.387 15.833 21.599 15.7452 21.7553 15.5889C21.9116 15.4326 21.9993 15.2207 21.9993 14.9997C21.9993 14.7787 21.9116 14.5667 21.7553 14.4104C21.599 14.2541 21.387 14.1663 21.166 14.1663Z" fill="#BDBDBD"/>
</svg>
