<svg width="16" height="16" viewBox="0 0 16 16" fill="none" xmlns="http://www.w3.org/2000/svg">
<path d="M5.80441 5.13807C6.06476 4.87772 6.06476 4.45561 5.80441 4.19526C5.54406 3.93491 5.12195 3.93491 4.8616 4.19526L1.52827 7.5286C1.26792 7.78894 1.26792 8.21106 1.52827 8.4714L4.8616 11.8047C5.12195 12.0651 5.54406 12.0651 5.80441 11.8047C6.06476 11.5444 6.06476 11.1223 5.80441 10.8619L2.94248 8L5.80441 5.13807Z" fill="#131313"/>
<path d="M11.1377 4.19526C10.8774 3.93491 10.4553 3.93491 10.1949 4.19526C9.93459 4.45561 9.93459 4.87772 10.1949 5.13807L13.0569 8L10.1949 10.8619C9.93459 11.1223 9.93459 11.5444 10.1949 11.8047C10.4553 12.0651 10.8774 12.0651 11.1377 11.8047L14.4711 8.4714C14.7314 8.21106 14.7314 7.78894 14.4711 7.5286L11.1377 4.19526Z" fill="#131313"/>
</svg>
